<svg xmlns="http://www.w3.org/2000/svg" xmlns:xlink="http://www.w3.org/1999/xlink" width="1080" zoomAndPan="magnify" viewBox="0 0 810 809.999993" height="1080" preserveAspectRatio="xMidYMid meet" version="1.0"><defs><g/><clipPath id="3a97bcddad"><path d="M 288 146.257812 L 810 146.257812 L 810 363.757812 L 288 363.757812 Z M 288 146.257812 " clip-rule="nonzero"/></clipPath><clipPath id="0535fb7042"><path d="M 0 146.257812 L 416 146.257812 L 416 363.757812 L 0 363.757812 Z M 0 146.257812 " clip-rule="nonzero"/></clipPath></defs><path fill="#5271ff" d="M 582.519531 309.21875 L 555.613281 309.21875 L 555.613281 282.3125 L 582.519531 282.3125 L 582.519531 309.21875 " fill-opacity="1" fill-rule="nonzero"/><path fill="#5271ff" d="M 627.078125 309.21875 L 600.171875 309.21875 L 600.171875 282.3125 L 627.078125 282.3125 L 627.078125 309.21875 " fill-opacity="1" fill-rule="nonzero"/><path fill="#5271ff" d="M 582.519531 352.09375 L 555.613281 352.09375 L 555.613281 325.1875 L 582.519531 325.1875 L 582.519531 352.09375 " fill-opacity="1" fill-rule="nonzero"/><path fill="#5271ff" d="M 627.078125 352.09375 L 600.171875 352.09375 L 600.171875 325.1875 L 627.078125 325.1875 L 627.078125 352.09375 " fill-opacity="1" fill-rule="nonzero"/><g clip-path="url(#3a97bcddad)"><path fill="#5271ff" d="M 592.300781 146.191406 L 493.9375 216.726562 L 493.9375 238.957031 L 488.121094 244.769531 L 488.121094 199.617188 L 452.546875 213.300781 L 452.546875 246.402344 L 288.726562 363.871094 L 448.503906 363.871094 L 592.300781 220.078125 L 736.09375 363.871094 L 809.972656 363.871094 L 592.300781 146.191406 " fill-opacity="1" fill-rule="nonzero"/></g><g clip-path="url(#0535fb7042)"><path fill="#5271ff" d="M 303.601562 146.191406 L 191.09375 226.859375 L 191.09375 238.957031 L 185.28125 244.769531 L 185.28125 199.617188 L 149.703125 213.300781 L 149.703125 256.539062 L 0.0273438 363.871094 L 159.804688 363.871094 L 303.601562 220.078125 L 372.304688 288.785156 L 415.335938 257.929688 L 303.601562 146.191406 " fill-opacity="1" fill-rule="nonzero"/></g><g fill="#000000" fill-opacity="1"><g transform="translate(55.72814, 594.36178)"><g><path d="M 92.5 0 L 68.890625 -34.09375 L 42.84375 -34.09375 L 42.84375 0 L 14.515625 0 L 14.515625 -122.390625 L 67.484375 -122.390625 C 78.328125 -122.390625 87.738281 -120.582031 95.71875 -116.96875 C 103.707031 -113.351562 109.859375 -108.222656 114.171875 -101.578125 C 118.484375 -94.941406 120.640625 -87.078125 120.640625 -77.984375 C 120.640625 -68.890625 118.453125 -61.046875 114.078125 -54.453125 C 109.710938 -47.867188 103.507812 -42.832031 95.46875 -39.34375 L 122.921875 0 Z M 91.96875 -77.984375 C 91.96875 -84.859375 89.753906 -90.128906 85.328125 -93.796875 C 80.898438 -97.472656 74.429688 -99.3125 65.921875 -99.3125 L 42.84375 -99.3125 L 42.84375 -56.65625 L 65.921875 -56.65625 C 74.429688 -56.65625 80.898438 -58.519531 85.328125 -62.25 C 89.753906 -65.976562 91.96875 -71.222656 91.96875 -77.984375 Z M 91.96875 -77.984375 "/></g></g></g><g fill="#000000" fill-opacity="1"><g transform="translate(202.951254, 594.36178)"><g><path d="M 109.28125 -22.734375 L 109.28125 0 L 14.515625 0 L 14.515625 -122.390625 L 107 -122.390625 L 107 -99.65625 L 42.65625 -99.65625 L 42.65625 -73.078125 L 99.484375 -73.078125 L 99.484375 -51.046875 L 42.65625 -51.046875 L 42.65625 -22.734375 Z M 109.28125 -22.734375 "/></g></g></g><g fill="#000000" fill-opacity="1"><g transform="translate(338.984029, 594.36178)"><g><path d="M 126.765625 -122.390625 L 126.765625 0 L 103.5 0 L 42.484375 -74.3125 L 42.484375 0 L 14.515625 0 L 14.515625 -122.390625 L 37.9375 -122.390625 L 98.78125 -48.078125 L 98.78125 -122.390625 Z M 126.765625 -122.390625 "/></g></g></g><g fill="#000000" fill-opacity="1"><g transform="translate(498.971112, 594.36178)"><g><path d="M 39.859375 -99.3125 L 0.703125 -99.3125 L 0.703125 -122.390625 L 107.359375 -122.390625 L 107.359375 -99.3125 L 68.1875 -99.3125 L 68.1875 0 L 39.859375 0 Z M 39.859375 -99.3125 "/></g></g></g><g fill="#5271ff" fill-opacity="1"><g transform="translate(625.748742, 594.36178)"><g><path d="M 92.5 0 L 68.890625 -34.09375 L 42.84375 -34.09375 L 42.84375 0 L 14.515625 0 L 14.515625 -122.390625 L 67.484375 -122.390625 C 78.328125 -122.390625 87.738281 -120.582031 95.71875 -116.96875 C 103.707031 -113.351562 109.859375 -108.222656 114.171875 -101.578125 C 118.484375 -94.941406 120.640625 -87.078125 120.640625 -77.984375 C 120.640625 -68.890625 118.453125 -61.046875 114.078125 -54.453125 C 109.710938 -47.867188 103.507812 -42.832031 95.46875 -39.34375 L 122.921875 0 Z M 91.96875 -77.984375 C 91.96875 -84.859375 89.753906 -90.128906 85.328125 -93.796875 C 80.898438 -97.472656 74.429688 -99.3125 65.921875 -99.3125 L 42.84375 -99.3125 L 42.84375 -56.65625 L 65.921875 -56.65625 C 74.429688 -56.65625 80.898438 -58.519531 85.328125 -62.25 C 89.753906 -65.976562 91.96875 -71.222656 91.96875 -77.984375 Z M 91.96875 -77.984375 "/></g></g></g></svg>